<?xml version="1.0" encoding="UTF-8" standalone="no"?>
<!-- Created with Inkscape (http://www.inkscape.org/) -->

<svg
   width="69.839638mm"
   height="20.154924mm"
   viewBox="0 0 69.839638 20.154924"
   version="1.1"
   id="svg1"
   xmlns:inkscape="http://www.inkscape.org/namespaces/inkscape"
   xmlns:sodipodi="http://sodipodi.sourceforge.net/DTD/sodipodi-0.dtd"
   xmlns="http://www.w3.org/2000/svg"
   xmlns:svg="http://www.w3.org/2000/svg">
  <sodipodi:namedview
     id="namedview1"
     pagecolor="#ffffff"
     bordercolor="#000000"
     borderopacity="0.25"
     inkscape:showpageshadow="2"
     inkscape:pageopacity="0.0"
     inkscape:pagecheckerboard="0"
     inkscape:deskcolor="#d1d1d1"
     inkscape:document-units="mm" />
  <defs
     id="defs1" />
  <g
     inkscape:label="Livello 1"
     inkscape:groupmode="layer"
     id="layer1"
     transform="translate(-5.1648432,-3.7613088)">
    <g
       id="group-MC1"
       transform="matrix(0.26458333,0,0,0.26458333,-11.627996,-14.05437)">
      <path
         id="path2-5"
         d="m 179.61858,79.433991 v 63.038939 l 47.97166,-31.51947 z"
         style="fill:none;stroke:#231f20 icc-color(sRGB-IEC61966-2, 0.1, 0.13723755, 0.12156677, 0.12548828);stroke-width:1.12;stroke-linecap:butt;stroke-linejoin:miter;stroke-miterlimit:2.613;stroke-dasharray:none;stroke-opacity:1" />
      <path
         id="path3"
         d="M 179.61858,122.77392 H 63.686402"
         style="fill:none;stroke:#231f20 icc-color(sRGB-IEC61966-2, 0.1, 0.13723755, 0.12156677, 0.12548828);stroke-width:0.560002;stroke-linecap:butt;stroke-linejoin:miter;stroke-miterlimit:2.613;stroke-dasharray:none;stroke-opacity:1" />
      <path
         id="path4"
         d="m 191.61082,99.134321 h -7.99528"
         style="fill:none;stroke:#231f20 icc-color(sRGB-IEC61966-2, 0.1, 0.13723755, 0.12156677, 0.12548828);stroke-width:1.12;stroke-linecap:butt;stroke-linejoin:miter;stroke-miterlimit:2.613;stroke-dasharray:none;stroke-opacity:1" />
      <path
         id="path5"
         d="m 191.61082,122.77524 h -7.99528"
         style="fill:none;stroke:#231f20 icc-color(sRGB-IEC61966-2, 0.1, 0.13723755, 0.12156677, 0.12548828);stroke-width:1.12;stroke-linecap:butt;stroke-linejoin:miter;stroke-miterlimit:2.613;stroke-dasharray:none;stroke-opacity:1" />
      <path
         id="path6"
         d="m 187.61385,118.83465 v 7.87987"
         style="fill:none;stroke:#231f20 icc-color(sRGB-IEC61966-2, 0.1, 0.13723755, 0.12156677, 0.12548828);stroke-width:1.12;stroke-linecap:butt;stroke-linejoin:miter;stroke-miterlimit:2.613;stroke-dasharray:none;stroke-opacity:1" />
      <path
         id="path7"
         d="M 179.61858,99.134321 H 159.62972 V 67.614851"
         style="fill:none;stroke:#231f20 icc-color(sRGB-IEC61966-2, 0.1, 0.13723755, 0.12156677, 0.12548828);stroke-width:0.560002;stroke-linecap:butt;stroke-linejoin:miter;stroke-miterlimit:2.613;stroke-dasharray:none;stroke-opacity:1" />
      <path
         id="path8"
         d="M 247.57909,110.95478 V 67.614851"
         style="fill:none;stroke:#231f20 icc-color(sRGB-IEC61966-2, 0.1, 0.13723755, 0.12156677, 0.12548828);stroke-width:0.560002;stroke-linecap:butt;stroke-linejoin:miter;stroke-miterlimit:2.613;stroke-dasharray:none;stroke-opacity:1" />
      <path
         id="path9"
         d="M 247.57909,110.95478 H 227.59023"
         style="fill:none;stroke:#231f20 icc-color(sRGB-IEC61966-2, 0.1, 0.13723755, 0.12156677, 0.12548828);stroke-width:0.560002;stroke-linecap:butt;stroke-linejoin:miter;stroke-miterlimit:2.613;stroke-dasharray:none;stroke-opacity:1" />
      <path
         id="path10"
         d="M 247.57909,67.614851 H 159.63105"
         style="fill:none;stroke:#231f20 icc-color(sRGB-IEC61966-2, 0.1, 0.13723755, 0.12156677, 0.12548828);stroke-width:0.560002;stroke-linecap:butt;stroke-linejoin:miter;stroke-miterlimit:2.613;stroke-dasharray:none;stroke-opacity:1" />
      <path
         id="path11"
         d="m 63.686399,87.315181 15.990552,19.700329 3.99831,-15.759729 18.707579,22.123979"
         style="fill:none;stroke:#231f20 icc-color(sRGB-IEC61966-2, 0.1, 0.13723755, 0.12156677, 0.12548828);stroke-width:0.560002;stroke-linecap:butt;stroke-linejoin:miter;stroke-miterlimit:2.613;stroke-dasharray:none;stroke-opacity:1" />
      <path
         id="path12"
         d="m 103.66095,114.89149 -1.23733,-4.09067 c -0.50933,1.14934 -1.384,1.86667 -2.621333,2.15334 l 3.858663,1.93733"
         style="fill:#231f20 icc-color(sRGB-IEC61966-2, 0.1, 0.13723755, 0.12156677, 0.12548828);fill-opacity:1;fill-rule:evenodd;stroke:none;stroke-width:1.33333" />
      <path
         id="path13"
         d="m 95.667504,87.313861 15.990556,19.700329 3.99831,-15.759729 18.70757,22.123979"
         style="fill:none;stroke:#231f20 icc-color(sRGB-IEC61966-2, 0.1, 0.13723755, 0.12156677, 0.12548828);stroke-width:0.560002;stroke-linecap:butt;stroke-linejoin:miter;stroke-miterlimit:2.613;stroke-dasharray:none;stroke-opacity:1" />
      <path
         id="path14"
         d="m 135.64229,114.89149 -1.23734,-4.09067 c -0.50933,1.14934 -1.384,1.86667 -2.62133,2.15334 l 3.85867,1.93733"
         style="fill:#231f20 icc-color(sRGB-IEC61966-2, 0.1, 0.13723755, 0.12156677, 0.12548828);fill-opacity:1;fill-rule:evenodd;stroke:none;stroke-width:1.33333" />
      <path
         id="path15"
         d="m 265.7481,97.175271 v 31.547269 h 51.99817"
         style="fill:none;stroke:#231f20 icc-color(sRGB-IEC61966-2, 0.1, 0.13723755, 0.12156677, 0.12548828);stroke-width:1.12;stroke-linecap:butt;stroke-linejoin:miter;stroke-miterlimit:2.613;stroke-dasharray:none;stroke-opacity:1" />
      <path
         id="path16"
         d="m 265.74496,93.260821 3.38533,7.783999 c -2.25733,-1.111999 -4.51333,-1.111999 -6.77066,0 l 3.38533,-7.783999"
         style="fill:#231f20 icc-color(sRGB-IEC61966-2, 0.1, 0.13723755, 0.12156677, 0.12548828);fill-opacity:1;fill-rule:evenodd;stroke:none;stroke-width:1.33333" />
      <path
         id="path17"
         d="m 321.71163,128.72082 -7.89733,-3.336 c 1.128,2.224 1.128,4.448 0,6.672 l 7.89733,-3.336"
         style="fill:#231f20 icc-color(sRGB-IEC61966-2, 0.1, 0.13723755, 0.12156677, 0.12548828);fill-opacity:1;fill-rule:evenodd;stroke:none;stroke-width:1.33333" />
      <path
         id="path18"
         d="m 265.7481,128.72386 c 4.87533,-7.38613 6.55282,-8.96396 11.99359,-12.3142 5.43942,-3.35023 9.98032,-5.4112 15.99055,-7.38613 6.00888,-1.97361 17.61969,-5.05116 21.618,-5.05116"
         style="fill:none;stroke:#231f20 icc-color(sRGB-IEC61966-2, 0.1, 0.13723755, 0.12156677, 0.12548828);stroke-width:0.560002;stroke-linecap:butt;stroke-linejoin:miter;stroke-miterlimit:2.613;stroke-dasharray:none;stroke-opacity:1" />
      <path
         id="path19"
         d="m 325.82046,124.40289 v 1.95313 h 1.42188 v 0.45312 h -1.42188 v 3.875 c 0,0.39063 0.0625,0.64063 0.1875,0.76563 0.10938,0.15625 0.23438,0.21875 0.42188,0.21875 0.14062,0 0.29687,-0.0469 0.42187,-0.125 0.14063,-0.0937 0.25,-0.23438 0.3125,-0.40625 h 0.26563 c -0.15625,0.42187 -0.375,0.75 -0.65625,0.95312 -0.28125,0.21875 -0.5625,0.32813 -0.875,0.32813 -0.20313,0 -0.39063,-0.0469 -0.59375,-0.15625 -0.1875,-0.125 -0.32813,-0.26563 -0.42188,-0.48438 -0.0937,-0.20312 -0.15625,-0.51562 -0.15625,-0.95312 v -4.01563 h -0.9375 v -0.20312 c 0.23438,-0.0937 0.48438,-0.26563 0.73438,-0.5 0.25,-0.21875 0.48437,-0.5 0.6875,-0.79688 0.0937,-0.17187 0.23437,-0.46875 0.40625,-0.90625 z M 262.4025,84.117741 v 0.23437 c -0.32813,0.0469 -0.5625,0.15625 -0.71875,0.29688 -0.25,0.20312 -0.45313,0.54687 -0.625,0.98437 l -3.125,7.51563 h -0.25 l -3.34375,-7.625 c -0.1875,-0.39063 -0.29688,-0.625 -0.375,-0.70313 -0.10938,-0.14062 -0.23438,-0.23437 -0.40625,-0.32812 -0.15625,-0.0781 -0.375,-0.10938 -0.64063,-0.14063 v -0.23437 h 3.65625 v 0.23437 c -0.40625,0.0469 -0.6875,0.10937 -0.79687,0.20313 -0.125,0.10937 -0.20313,0.23437 -0.20313,0.39062 0,0.21875 0.0937,0.54688 0.29688,1.01563 l 2.29687,5.1875 2.10938,-5.125 c 0.20312,-0.5 0.3125,-0.85938 0.3125,-1.04688 0,-0.125 -0.0781,-0.25 -0.1875,-0.35937 -0.14063,-0.125 -0.34375,-0.20313 -0.65625,-0.25 -0.0313,0 -0.0469,0 -0.10938,-0.0156 v -0.23437 z m 4.86718,8.15625 c -0.3125,0.29687 -0.59375,0.53125 -0.875,0.65625 -0.28125,0.14062 -0.57812,0.20312 -0.90625,0.20312 -0.65625,0 -1.25,-0.28125 -1.73437,-0.82812 -0.5,-0.54688 -0.73438,-1.23438 -0.73438,-2.09375 0,-0.85938 0.26563,-1.64063 0.8125,-2.34375 0.54688,-0.71875 1.25,-1.07813 2.10938,-1.07813 0.53125,0 0.96875,0.17188 1.32812,0.51563 v -1.10938 c 0,-0.6875 -0.0156,-1.09375 -0.0625,-1.25 -0.0312,-0.17187 -0.0781,-0.26562 -0.14063,-0.32812 -0.0781,-0.0469 -0.17187,-0.0781 -0.28124,-0.0781 -0.10938,0 -0.25,0.0312 -0.4375,0.0937 l -0.0937,-0.23437 1.8125,-0.71875 h 0.29687 v 6.90625 c 0,0.6875 0.0156,1.125 0.0313,1.28125 0.0469,0.14062 0.0937,0.25 0.17187,0.3125 0.0625,0.0625 0.15625,0.0937 0.25,0.0937 0.125,0 0.26563,-0.0312 0.46875,-0.10938 l 0.0781,0.21875 -1.79687,0.75 h -0.29688 z m 0,-0.46875 v -3.0625 c -0.0312,-0.29688 -0.10937,-0.5625 -0.23437,-0.8125 -0.14063,-0.23438 -0.3125,-0.42188 -0.53125,-0.54688 -0.21875,-0.125 -0.4375,-0.1875 -0.64063,-0.1875 -0.39062,0 -0.73437,0.17188 -1.03125,0.51563 -0.40625,0.45312 -0.60937,1.10937 -0.60937,1.98437 0,0.875 0.20312,1.54688 0.57812,2.01563 0.39063,0.45312 0.82813,0.70312 1.29688,0.70312 0.40625,0 0.78125,-0.20312 1.17187,-0.60937 z m 7.62891,-1.125 c -0.15625,0.78125 -0.48437,1.39062 -0.96875,1.8125 -0.46875,0.42187 -1,0.64062 -1.5625,0.64062 -0.6875,0 -1.29688,-0.29687 -1.79688,-0.85937 -0.51562,-0.5625 -0.78124,-1.34375 -0.78124,-2.29688 0,-0.95312 0.29687,-1.71875 0.85937,-2.29687 0.5625,-0.59375 1.25,-0.89063 2.03125,-0.89063 0.59375,0 1.09375,0.17188 1.46875,0.46875 0.39063,0.32813 0.57813,0.64063 0.57813,0.98438 0,0.15625 -0.0625,0.28125 -0.17188,0.39062 -0.10937,0.10938 -0.25,0.15625 -0.4375,0.15625 -0.26562,0 -0.46875,-0.0937 -0.59375,-0.25 -0.0781,-0.0937 -0.125,-0.26562 -0.14063,-0.51562 -0.0312,-0.25 -0.125,-0.45313 -0.26562,-0.59375 -0.17188,-0.125 -0.375,-0.20313 -0.65625,-0.20313 -0.4375,0 -0.78125,0.17188 -1.0625,0.48438 -0.35937,0.4375 -0.53125,0.98437 -0.53125,1.70312 0,0.70313 0.17188,1.32813 0.53125,1.875 0.35937,0.54688 0.82813,0.8125 1.4375,0.8125 0.4375,0 0.8125,-0.125 1.17187,-0.42187 0.23438,-0.20313 0.46876,-0.5625 0.70313,-1.09375 z m 0,0"
         style="fill:#231f20 icc-color(sRGB-IEC61966-2, 0.1, 0.13723755, 0.12156677, 0.12548828);fill-opacity:1;fill-rule:nonzero;stroke:none;stroke-width:1.32369"
         aria-label="t&#10;Vdc" />
    </g>
  </g>
</svg>
